<svg width="379" height="148" viewBox="0 0 379 148" fill="none" xmlns="http://www.w3.org/2000/svg">
<g filter="url(#filter0_d_366_444)">
<rect x="4" width="371" height="140" rx="10" fill="white"/>
</g>
<g opacity="0.6">
<path d="M6 121.485C67.6667 83.5104 129.333 78.6506 191 106.905C252.667 135.16 314.333 140.02 376 121.485" stroke="url(#paint0_linear_366_444)" stroke-opacity="0.2" stroke-linecap="round"/>
<path opacity="0.96" d="M6 119.62C67.6667 82.8888 129.333 78.6506 191 106.905C252.667 135.16 314.333 139.398 376 119.62" stroke="url(#paint1_linear_366_444)" stroke-opacity="0.2" stroke-linecap="round"/>
<path opacity="0.92" d="M6 117.755C67.6667 82.2672 129.333 78.6506 191 106.905C252.667 135.16 314.333 138.777 376 117.755" stroke="url(#paint2_linear_366_444)" stroke-opacity="0.2" stroke-linecap="round"/>
<path opacity="0.89" d="M6 115.89C67.6667 81.6456 129.333 78.6506 191 106.905C252.667 135.16 314.333 138.155 376 115.89" stroke="url(#paint3_linear_366_444)" stroke-opacity="0.2" stroke-linecap="round"/>
<path opacity="0.85" d="M6 114.025C67.6667 81.024 129.333 78.6506 191 106.905C252.667 135.16 314.333 137.533 376 114.025" stroke="url(#paint4_linear_366_444)" stroke-opacity="0.2" stroke-linecap="round"/>
<path opacity="0.81" d="M6 112.161C67.6667 80.4024 129.333 78.6506 191 106.905C252.667 135.16 314.333 136.912 376 112.161" stroke="url(#paint5_linear_366_444)" stroke-opacity="0.2" stroke-linecap="round"/>
<path opacity="0.77" d="M6 110.296C67.6667 79.7808 129.333 78.6506 191 106.905C252.667 135.16 314.333 136.29 376 110.296" stroke="url(#paint6_linear_366_444)" stroke-opacity="0.2" stroke-linecap="round"/>
<path opacity="0.73" d="M6 108.431C67.6667 79.1592 129.333 78.6506 191 106.905C252.667 135.16 314.333 135.669 376 108.431" stroke="url(#paint7_linear_366_444)" stroke-opacity="0.2" stroke-linecap="round"/>
<path opacity="0.7" d="M6 106.566C67.6667 78.5376 129.333 78.6506 191 106.905C252.667 135.16 314.333 135.047 376 106.566" stroke="url(#paint8_linear_366_444)" stroke-opacity="0.2" stroke-linecap="round"/>
<path opacity="0.66" d="M6 104.701C67.6667 77.916 129.333 78.6506 191 106.905C252.667 135.16 314.333 134.425 376 104.701" stroke="url(#paint9_linear_366_444)" stroke-opacity="0.2" stroke-linecap="round"/>
<path opacity="0.62" d="M6 102.837C67.6667 77.2944 129.333 78.6506 191 106.905C252.667 135.16 314.333 133.804 376 102.837" stroke="url(#paint10_linear_366_444)" stroke-opacity="0.2" stroke-linecap="round"/>
<path opacity="0.58" d="M6 100.972C67.6667 76.6728 129.333 78.6506 191 106.905C252.667 135.16 314.333 133.182 376 100.972" stroke="url(#paint11_linear_366_444)" stroke-opacity="0.2" stroke-linecap="round"/>
<path opacity="0.54" d="M6 99.107C67.6667 76.0511 129.333 78.6506 191 106.905C252.667 135.16 314.333 132.56 376 99.107" stroke="url(#paint12_linear_366_444)" stroke-opacity="0.2" stroke-linecap="round"/>
<path opacity="0.51" d="M6 97.2422C67.6667 75.4296 129.333 78.6506 191 106.905C252.667 135.16 314.333 131.939 376 97.2422" stroke="url(#paint13_linear_366_444)" stroke-opacity="0.2" stroke-linecap="round"/>
<path opacity="0.47" d="M6 95.3774C67.6667 74.808 129.333 78.6506 191 106.905C252.667 135.16 314.333 131.317 376 95.3774" stroke="url(#paint14_linear_366_444)" stroke-opacity="0.2" stroke-linecap="round"/>
<path opacity="0.43" d="M6 93.5125C67.6667 74.1863 129.333 78.6506 191 106.905C252.667 135.16 314.333 130.696 376 93.5125" stroke="url(#paint15_linear_366_444)" stroke-opacity="0.2" stroke-linecap="round"/>
<path opacity="0.39" d="M6 91.6478C67.6667 73.5648 129.333 78.6506 191 106.905C252.667 135.16 314.333 130.074 376 91.6478" stroke="url(#paint16_linear_366_444)" stroke-opacity="0.2" stroke-linecap="round"/>
<path opacity="0.35" d="M6 89.783C67.6667 72.9432 129.333 78.6506 191 106.905C252.667 135.16 314.333 129.453 376 89.783" stroke="url(#paint17_linear_366_444)" stroke-opacity="0.2" stroke-linecap="round"/>
<path opacity="0.32" d="M6 87.9181C67.6667 72.3216 129.333 78.6506 191 106.905C252.667 135.16 314.333 128.831 376 87.9181" stroke="url(#paint18_linear_366_444)" stroke-opacity="0.2" stroke-linecap="round"/>
<path opacity="0.28" d="M6 86.0533C67.6667 71.6999 129.333 78.6506 191 106.905C252.667 135.16 314.333 128.209 376 86.0533" stroke="url(#paint19_linear_366_444)" stroke-opacity="0.2" stroke-linecap="round"/>
<path opacity="0.24" d="M6 84.1885C67.6667 71.0783 129.333 78.6506 191 106.905C252.667 135.16 314.333 127.588 376 84.1885" stroke="url(#paint20_linear_366_444)" stroke-opacity="0.2" stroke-linecap="round"/>
<path opacity="0.2" d="M6 82.3237C67.6667 70.4567 129.333 78.6506 191 106.905C252.667 135.16 314.333 126.966 376 82.3237" stroke="url(#paint21_linear_366_444)" stroke-opacity="0.2" stroke-linecap="round"/>
<path opacity="0.16" d="M6 80.4589C67.6667 69.8352 129.333 78.6506 191 106.905C252.667 135.16 314.333 126.345 376 80.4589" stroke="url(#paint22_linear_366_444)" stroke-opacity="0.2" stroke-linecap="round"/>
<path opacity="0.13" d="M6 78.5941C67.6667 69.2136 129.333 78.6506 191 106.905C252.667 135.16 314.333 125.723 376 78.5941" stroke="url(#paint23_linear_366_444)" stroke-opacity="0.2" stroke-linecap="round"/>
<path opacity="0.09" d="M6 76.7293C67.6667 68.592 129.333 78.6506 191 106.905C252.667 135.16 314.333 125.101 376 76.7293" stroke="url(#paint24_linear_366_444)" stroke-opacity="0.2" stroke-linecap="round"/>
</g>
<defs>
<filter id="filter0_d_366_444" x="0" y="0" width="379" height="148" filterUnits="userSpaceOnUse" color-interpolation-filters="sRGB">
<feFlood flood-opacity="0" result="BackgroundImageFix"/>
<feColorMatrix in="SourceAlpha" type="matrix" values="0 0 0 0 0 0 0 0 0 0 0 0 0 0 0 0 0 0 127 0" result="hardAlpha"/>
<feOffset dy="4"/>
<feGaussianBlur stdDeviation="2"/>
<feComposite in2="hardAlpha" operator="out"/>
<feColorMatrix type="matrix" values="0 0 0 0 0.981615 0 0 0 0 0 0 0 0 0 0 0 0 0 1 0"/>
<feBlend mode="normal" in2="BackgroundImageFix" result="effect1_dropShadow_366_444"/>
<feBlend mode="normal" in="SourceGraphic" in2="effect1_dropShadow_366_444" result="shape"/>
</filter>
<linearGradient id="paint0_linear_366_444" x1="18506" y1="88.8242" x2="18506" y2="4456.23" gradientUnits="userSpaceOnUse">
<stop stop-color="#ED070A"/>
<stop offset="1" stop-color="#F42A8B"/>
</linearGradient>
<linearGradient id="paint1_linear_366_444" x1="18506" y1="88.4783" x2="18506" y2="4424.23" gradientUnits="userSpaceOnUse">
<stop stop-color="#ED070A"/>
<stop offset="1" stop-color="#F42A8B"/>
</linearGradient>
<linearGradient id="paint2_linear_366_444" x1="18506" y1="88.119" x2="18506" y2="4396.91" gradientUnits="userSpaceOnUse">
<stop stop-color="#ED070A"/>
<stop offset="1" stop-color="#F42A8B"/>
</linearGradient>
<linearGradient id="paint3_linear_366_444" x1="18506" y1="87.7452" x2="18506" y2="4374.11" gradientUnits="userSpaceOnUse">
<stop stop-color="#ED070A"/>
<stop offset="1" stop-color="#F42A8B"/>
</linearGradient>
<linearGradient id="paint4_linear_366_444" x1="18506" y1="87.3564" x2="18506" y2="4355.67" gradientUnits="userSpaceOnUse">
<stop stop-color="#ED070A"/>
<stop offset="1" stop-color="#F42A8B"/>
</linearGradient>
<linearGradient id="paint5_linear_366_444" x1="18506" y1="86.9514" x2="18506" y2="4341.51" gradientUnits="userSpaceOnUse">
<stop stop-color="#ED070A"/>
<stop offset="1" stop-color="#F42A8B"/>
</linearGradient>
<linearGradient id="paint6_linear_366_444" x1="18506" y1="86.5293" x2="18506" y2="4331.52" gradientUnits="userSpaceOnUse">
<stop stop-color="#ED070A"/>
<stop offset="1" stop-color="#F42A8B"/>
</linearGradient>
<linearGradient id="paint7_linear_366_444" x1="18506" y1="86.089" x2="18506" y2="4325.66" gradientUnits="userSpaceOnUse">
<stop stop-color="#ED070A"/>
<stop offset="1" stop-color="#F42A8B"/>
</linearGradient>
<linearGradient id="paint8_linear_366_444" x1="18506" y1="85.6292" x2="18506" y2="4323.9" gradientUnits="userSpaceOnUse">
<stop stop-color="#ED070A"/>
<stop offset="1" stop-color="#F42A8B"/>
</linearGradient>
<linearGradient id="paint9_linear_366_444" x1="18506" y1="85.1486" x2="18506" y2="4326.22" gradientUnits="userSpaceOnUse">
<stop stop-color="#ED070A"/>
<stop offset="1" stop-color="#F42A8B"/>
</linearGradient>
<linearGradient id="paint10_linear_366_444" x1="18506" y1="84.6458" x2="18506" y2="4332.63" gradientUnits="userSpaceOnUse">
<stop stop-color="#ED070A"/>
<stop offset="1" stop-color="#F42A8B"/>
</linearGradient>
<linearGradient id="paint11_linear_366_444" x1="18506" y1="84.1193" x2="18506" y2="4343.19" gradientUnits="userSpaceOnUse">
<stop stop-color="#ED070A"/>
<stop offset="1" stop-color="#F42A8B"/>
</linearGradient>
<linearGradient id="paint12_linear_366_444" x1="18506" y1="83.5671" x2="18506" y2="4357.95" gradientUnits="userSpaceOnUse">
<stop stop-color="#ED070A"/>
<stop offset="1" stop-color="#F42A8B"/>
</linearGradient>
<linearGradient id="paint13_linear_366_444" x1="18506" y1="82.9877" x2="18506" y2="4376.99" gradientUnits="userSpaceOnUse">
<stop stop-color="#ED070A"/>
<stop offset="1" stop-color="#F42A8B"/>
</linearGradient>
<linearGradient id="paint14_linear_366_444" x1="18506" y1="82.3787" x2="18506" y2="4400.45" gradientUnits="userSpaceOnUse">
<stop stop-color="#ED070A"/>
<stop offset="1" stop-color="#F42A8B"/>
</linearGradient>
<linearGradient id="paint15_linear_366_444" x1="18506" y1="81.7378" x2="18506" y2="4428.45" gradientUnits="userSpaceOnUse">
<stop stop-color="#ED070A"/>
<stop offset="1" stop-color="#F42A8B"/>
</linearGradient>
<linearGradient id="paint16_linear_366_444" x1="18506" y1="81.0626" x2="18506" y2="4461.18" gradientUnits="userSpaceOnUse">
<stop stop-color="#ED070A"/>
<stop offset="1" stop-color="#F42A8B"/>
</linearGradient>
<linearGradient id="paint17_linear_366_444" x1="18506" y1="80.3502" x2="18506" y2="4498.84" gradientUnits="userSpaceOnUse">
<stop stop-color="#ED070A"/>
<stop offset="1" stop-color="#F42A8B"/>
</linearGradient>
<linearGradient id="paint18_linear_366_444" x1="18506" y1="79.5973" x2="18506" y2="4541.69" gradientUnits="userSpaceOnUse">
<stop stop-color="#ED070A"/>
<stop offset="1" stop-color="#F42A8B"/>
</linearGradient>
<linearGradient id="paint19_linear_366_444" x1="18506" y1="78.8005" x2="18506" y2="4590" gradientUnits="userSpaceOnUse">
<stop stop-color="#ED070A"/>
<stop offset="1" stop-color="#F42A8B"/>
</linearGradient>
<linearGradient id="paint20_linear_366_444" x1="18506" y1="77.9558" x2="18506" y2="4644.12" gradientUnits="userSpaceOnUse">
<stop stop-color="#ED070A"/>
<stop offset="1" stop-color="#F42A8B"/>
</linearGradient>
<linearGradient id="paint21_linear_366_444" x1="18506" y1="77.0588" x2="18506" y2="4704.42" gradientUnits="userSpaceOnUse">
<stop stop-color="#ED070A"/>
<stop offset="1" stop-color="#F42A8B"/>
</linearGradient>
<linearGradient id="paint22_linear_366_444" x1="18506" y1="76.1044" x2="18506" y2="4771.36" gradientUnits="userSpaceOnUse">
<stop stop-color="#ED070A"/>
<stop offset="1" stop-color="#F42A8B"/>
</linearGradient>
<linearGradient id="paint23_linear_366_444" x1="18506" y1="75.087" x2="18506" y2="4845.45" gradientUnits="userSpaceOnUse">
<stop stop-color="#ED070A"/>
<stop offset="1" stop-color="#F42A8B"/>
</linearGradient>
<linearGradient id="paint24_linear_366_444" x1="18506" y1="74" x2="18506" y2="4927.29" gradientUnits="userSpaceOnUse">
<stop stop-color="#ED070A"/>
<stop offset="1" stop-color="#F42A8B"/>
</linearGradient>
</defs>
</svg>
