<svg width="379" height="148" viewBox="0 0 379 148" fill="none" xmlns="http://www.w3.org/2000/svg">
<g filter="url(#filter0_d_366_500)">
<rect x="4" width="371" height="140" rx="10" fill="white"/>
</g>
<g opacity="0.6">
<path d="M5 118.485C66.6667 80.5104 128.333 75.6506 190 103.905C251.667 132.16 313.333 137.02 375 118.485" stroke="url(#paint0_linear_366_500)" stroke-opacity="0.2" stroke-linecap="round"/>
<path opacity="0.96" d="M5 116.62C66.6667 79.8888 128.333 75.6506 190 103.905C251.667 132.16 313.333 136.398 375 116.62" stroke="url(#paint1_linear_366_500)" stroke-opacity="0.2" stroke-linecap="round"/>
<path opacity="0.92" d="M5 114.755C66.6667 79.2672 128.333 75.6506 190 103.905C251.667 132.16 313.333 135.777 375 114.755" stroke="url(#paint2_linear_366_500)" stroke-opacity="0.2" stroke-linecap="round"/>
<path opacity="0.89" d="M5 112.89C66.6667 78.6456 128.333 75.6506 190 103.905C251.667 132.16 313.333 135.155 375 112.89" stroke="url(#paint3_linear_366_500)" stroke-opacity="0.2" stroke-linecap="round"/>
<path opacity="0.85" d="M5 111.025C66.6667 78.024 128.333 75.6506 190 103.905C251.667 132.16 313.333 134.533 375 111.025" stroke="url(#paint4_linear_366_500)" stroke-opacity="0.2" stroke-linecap="round"/>
<path opacity="0.81" d="M5 109.161C66.6667 77.4024 128.333 75.6506 190 103.905C251.667 132.16 313.333 133.912 375 109.161" stroke="url(#paint5_linear_366_500)" stroke-opacity="0.2" stroke-linecap="round"/>
<path opacity="0.77" d="M5 107.296C66.6667 76.7808 128.333 75.6506 190 103.905C251.667 132.16 313.333 133.29 375 107.296" stroke="url(#paint6_linear_366_500)" stroke-opacity="0.2" stroke-linecap="round"/>
<path opacity="0.73" d="M5 105.431C66.6667 76.1592 128.333 75.6506 190 103.905C251.667 132.16 313.333 132.669 375 105.431" stroke="url(#paint7_linear_366_500)" stroke-opacity="0.2" stroke-linecap="round"/>
<path opacity="0.7" d="M5 103.566C66.6667 75.5376 128.333 75.6506 190 103.905C251.667 132.16 313.333 132.047 375 103.566" stroke="url(#paint8_linear_366_500)" stroke-opacity="0.2" stroke-linecap="round"/>
<path opacity="0.66" d="M5 101.701C66.6667 74.916 128.333 75.6506 190 103.905C251.667 132.16 313.333 131.425 375 101.701" stroke="url(#paint9_linear_366_500)" stroke-opacity="0.2" stroke-linecap="round"/>
<path opacity="0.62" d="M5 99.8366C66.6667 74.2944 128.333 75.6506 190 103.905C251.667 132.16 313.333 130.804 375 99.8366" stroke="url(#paint10_linear_366_500)" stroke-opacity="0.2" stroke-linecap="round"/>
<path opacity="0.58" d="M5 97.9718C66.6667 73.6728 128.333 75.6506 190 103.905C251.667 132.16 313.333 130.182 375 97.9718" stroke="url(#paint11_linear_366_500)" stroke-opacity="0.2" stroke-linecap="round"/>
<path opacity="0.54" d="M5 96.107C66.6667 73.0511 128.333 75.6506 190 103.905C251.667 132.16 313.333 129.56 375 96.107" stroke="url(#paint12_linear_366_500)" stroke-opacity="0.2" stroke-linecap="round"/>
<path opacity="0.51" d="M5 94.2422C66.6667 72.4296 128.333 75.6506 190 103.905C251.667 132.16 313.333 128.939 375 94.2422" stroke="url(#paint13_linear_366_500)" stroke-opacity="0.2" stroke-linecap="round"/>
<path opacity="0.47" d="M5 92.3774C66.6667 71.808 128.333 75.6506 190 103.905C251.667 132.16 313.333 128.317 375 92.3774" stroke="url(#paint14_linear_366_500)" stroke-opacity="0.2" stroke-linecap="round"/>
<path opacity="0.43" d="M5 90.5125C66.6667 71.1863 128.333 75.6506 190 103.905C251.667 132.16 313.333 127.696 375 90.5125" stroke="url(#paint15_linear_366_500)" stroke-opacity="0.2" stroke-linecap="round"/>
<path opacity="0.39" d="M5 88.6478C66.6667 70.5648 128.333 75.6506 190 103.905C251.667 132.16 313.333 127.074 375 88.6478" stroke="url(#paint16_linear_366_500)" stroke-opacity="0.2" stroke-linecap="round"/>
<path opacity="0.35" d="M5 86.783C66.6667 69.9432 128.333 75.6506 190 103.905C251.667 132.16 313.333 126.453 375 86.783" stroke="url(#paint17_linear_366_500)" stroke-opacity="0.2" stroke-linecap="round"/>
<path opacity="0.32" d="M5 84.9181C66.6667 69.3216 128.333 75.6506 190 103.905C251.667 132.16 313.333 125.831 375 84.9181" stroke="url(#paint18_linear_366_500)" stroke-opacity="0.2" stroke-linecap="round"/>
<path opacity="0.28" d="M5 83.0533C66.6667 68.6999 128.333 75.6506 190 103.905C251.667 132.16 313.333 125.209 375 83.0533" stroke="url(#paint19_linear_366_500)" stroke-opacity="0.2" stroke-linecap="round"/>
<path opacity="0.24" d="M5 81.1885C66.6667 68.0783 128.333 75.6506 190 103.905C251.667 132.16 313.333 124.588 375 81.1885" stroke="url(#paint20_linear_366_500)" stroke-opacity="0.2" stroke-linecap="round"/>
<path opacity="0.2" d="M5 79.3237C66.6667 67.4567 128.333 75.6506 190 103.905C251.667 132.16 313.333 123.966 375 79.3237" stroke="url(#paint21_linear_366_500)" stroke-opacity="0.2" stroke-linecap="round"/>
<path opacity="0.16" d="M5 77.4589C66.6667 66.8352 128.333 75.6506 190 103.905C251.667 132.16 313.333 123.345 375 77.4589" stroke="url(#paint22_linear_366_500)" stroke-opacity="0.2" stroke-linecap="round"/>
<path opacity="0.13" d="M5 75.5941C66.6667 66.2136 128.333 75.6506 190 103.905C251.667 132.16 313.333 122.723 375 75.5941" stroke="url(#paint23_linear_366_500)" stroke-opacity="0.2" stroke-linecap="round"/>
<path opacity="0.09" d="M5 73.7293C66.6667 65.592 128.333 75.6506 190 103.905C251.667 132.16 313.333 122.101 375 73.7293" stroke="url(#paint24_linear_366_500)" stroke-opacity="0.2" stroke-linecap="round"/>
</g>
<defs>
<filter id="filter0_d_366_500" x="0" y="0" width="379" height="148" filterUnits="userSpaceOnUse" color-interpolation-filters="sRGB">
<feFlood flood-opacity="0" result="BackgroundImageFix"/>
<feColorMatrix in="SourceAlpha" type="matrix" values="0 0 0 0 0 0 0 0 0 0 0 0 0 0 0 0 0 0 127 0" result="hardAlpha"/>
<feOffset dy="4"/>
<feGaussianBlur stdDeviation="2"/>
<feComposite in2="hardAlpha" operator="out"/>
<feColorMatrix type="matrix" values="0 0 0 0 0.835294 0 0 0 0 0.490196 0 0 0 0 0.168627 0 0 0 1 0"/>
<feBlend mode="normal" in2="BackgroundImageFix" result="effect1_dropShadow_366_500"/>
<feBlend mode="normal" in="SourceGraphic" in2="effect1_dropShadow_366_500" result="shape"/>
</filter>
<linearGradient id="paint0_linear_366_500" x1="18505" y1="85.8242" x2="18505" y2="4453.23" gradientUnits="userSpaceOnUse">
<stop stop-color="#F47F2A"/>
<stop offset="1" stop-color="#F42A8B"/>
</linearGradient>
<linearGradient id="paint1_linear_366_500" x1="18505" y1="85.4783" x2="18505" y2="4421.23" gradientUnits="userSpaceOnUse">
<stop stop-color="#F47F2A"/>
<stop offset="1" stop-color="#F42A8B"/>
</linearGradient>
<linearGradient id="paint2_linear_366_500" x1="18505" y1="85.119" x2="18505" y2="4393.91" gradientUnits="userSpaceOnUse">
<stop stop-color="#F47F2A"/>
<stop offset="1" stop-color="#F42A8B"/>
</linearGradient>
<linearGradient id="paint3_linear_366_500" x1="18505" y1="84.7452" x2="18505" y2="4371.11" gradientUnits="userSpaceOnUse">
<stop stop-color="#F47F2A"/>
<stop offset="1" stop-color="#F42A8B"/>
</linearGradient>
<linearGradient id="paint4_linear_366_500" x1="18505" y1="84.3564" x2="18505" y2="4352.67" gradientUnits="userSpaceOnUse">
<stop stop-color="#F47F2A"/>
<stop offset="1" stop-color="#F42A8B"/>
</linearGradient>
<linearGradient id="paint5_linear_366_500" x1="18505" y1="83.9514" x2="18505" y2="4338.51" gradientUnits="userSpaceOnUse">
<stop stop-color="#F47F2A"/>
<stop offset="1" stop-color="#F42A8B"/>
</linearGradient>
<linearGradient id="paint6_linear_366_500" x1="18505" y1="83.5293" x2="18505" y2="4328.52" gradientUnits="userSpaceOnUse">
<stop stop-color="#F47F2A"/>
<stop offset="1" stop-color="#F42A8B"/>
</linearGradient>
<linearGradient id="paint7_linear_366_500" x1="18505" y1="83.089" x2="18505" y2="4322.66" gradientUnits="userSpaceOnUse">
<stop stop-color="#F47F2A"/>
<stop offset="1" stop-color="#F42A8B"/>
</linearGradient>
<linearGradient id="paint8_linear_366_500" x1="18505" y1="82.6292" x2="18505" y2="4320.9" gradientUnits="userSpaceOnUse">
<stop stop-color="#F47F2A"/>
<stop offset="1" stop-color="#F42A8B"/>
</linearGradient>
<linearGradient id="paint9_linear_366_500" x1="18505" y1="82.1486" x2="18505" y2="4323.22" gradientUnits="userSpaceOnUse">
<stop stop-color="#F47F2A"/>
<stop offset="1" stop-color="#F42A8B"/>
</linearGradient>
<linearGradient id="paint10_linear_366_500" x1="18505" y1="81.6458" x2="18505" y2="4329.63" gradientUnits="userSpaceOnUse">
<stop stop-color="#F47F2A"/>
<stop offset="1" stop-color="#F42A8B"/>
</linearGradient>
<linearGradient id="paint11_linear_366_500" x1="18505" y1="81.1193" x2="18505" y2="4340.19" gradientUnits="userSpaceOnUse">
<stop stop-color="#F47F2A"/>
<stop offset="1" stop-color="#F42A8B"/>
</linearGradient>
<linearGradient id="paint12_linear_366_500" x1="18505" y1="80.5671" x2="18505" y2="4354.95" gradientUnits="userSpaceOnUse">
<stop stop-color="#F47F2A"/>
<stop offset="1" stop-color="#F42A8B"/>
</linearGradient>
<linearGradient id="paint13_linear_366_500" x1="18505" y1="79.9877" x2="18505" y2="4373.99" gradientUnits="userSpaceOnUse">
<stop stop-color="#F47F2A"/>
<stop offset="1" stop-color="#F42A8B"/>
</linearGradient>
<linearGradient id="paint14_linear_366_500" x1="18505" y1="79.3787" x2="18505" y2="4397.45" gradientUnits="userSpaceOnUse">
<stop stop-color="#F47F2A"/>
<stop offset="1" stop-color="#F42A8B"/>
</linearGradient>
<linearGradient id="paint15_linear_366_500" x1="18505" y1="78.7378" x2="18505" y2="4425.45" gradientUnits="userSpaceOnUse">
<stop stop-color="#F47F2A"/>
<stop offset="1" stop-color="#F42A8B"/>
</linearGradient>
<linearGradient id="paint16_linear_366_500" x1="18505" y1="78.0626" x2="18505" y2="4458.18" gradientUnits="userSpaceOnUse">
<stop stop-color="#F47F2A"/>
<stop offset="1" stop-color="#F42A8B"/>
</linearGradient>
<linearGradient id="paint17_linear_366_500" x1="18505" y1="77.3502" x2="18505" y2="4495.84" gradientUnits="userSpaceOnUse">
<stop stop-color="#F47F2A"/>
<stop offset="1" stop-color="#F42A8B"/>
</linearGradient>
<linearGradient id="paint18_linear_366_500" x1="18505" y1="76.5973" x2="18505" y2="4538.69" gradientUnits="userSpaceOnUse">
<stop stop-color="#F47F2A"/>
<stop offset="1" stop-color="#F42A8B"/>
</linearGradient>
<linearGradient id="paint19_linear_366_500" x1="18505" y1="75.8005" x2="18505" y2="4587" gradientUnits="userSpaceOnUse">
<stop stop-color="#F47F2A"/>
<stop offset="1" stop-color="#F42A8B"/>
</linearGradient>
<linearGradient id="paint20_linear_366_500" x1="18505" y1="74.9558" x2="18505" y2="4641.12" gradientUnits="userSpaceOnUse">
<stop stop-color="#F47F2A"/>
<stop offset="1" stop-color="#F42A8B"/>
</linearGradient>
<linearGradient id="paint21_linear_366_500" x1="18505" y1="74.0588" x2="18505" y2="4701.42" gradientUnits="userSpaceOnUse">
<stop stop-color="#F47F2A"/>
<stop offset="1" stop-color="#F42A8B"/>
</linearGradient>
<linearGradient id="paint22_linear_366_500" x1="18505" y1="73.1044" x2="18505" y2="4768.36" gradientUnits="userSpaceOnUse">
<stop stop-color="#F47F2A"/>
<stop offset="1" stop-color="#F42A8B"/>
</linearGradient>
<linearGradient id="paint23_linear_366_500" x1="18505" y1="72.087" x2="18505" y2="4842.45" gradientUnits="userSpaceOnUse">
<stop stop-color="#F47F2A"/>
<stop offset="1" stop-color="#F42A8B"/>
</linearGradient>
<linearGradient id="paint24_linear_366_500" x1="18505" y1="71" x2="18505" y2="4924.29" gradientUnits="userSpaceOnUse">
<stop stop-color="#F47F2A"/>
<stop offset="1" stop-color="#F42A8B"/>
</linearGradient>
</defs>
</svg>
