<svg width="379" height="148" viewBox="0 0 379 148" fill="none" xmlns="http://www.w3.org/2000/svg">
<g filter="url(#filter0_d_366_416)">
<rect x="4" width="371" height="140" rx="10" fill="white"/>
</g>
<g opacity="0.6">
<path d="M4 120.485C65.6667 82.5104 127.333 77.6506 189 105.905C250.667 134.16 312.333 139.02 374 120.485" stroke="url(#paint0_linear_366_416)" stroke-opacity="0.2" stroke-linecap="round"/>
<path opacity="0.96" d="M4 118.62C65.6667 81.8888 127.333 77.6506 189 105.905C250.667 134.16 312.333 138.398 374 118.62" stroke="url(#paint1_linear_366_416)" stroke-opacity="0.2" stroke-linecap="round"/>
<path opacity="0.92" d="M4 116.755C65.6667 81.2672 127.333 77.6506 189 105.905C250.667 134.16 312.333 137.777 374 116.755" stroke="url(#paint2_linear_366_416)" stroke-opacity="0.2" stroke-linecap="round"/>
<path opacity="0.89" d="M4 114.89C65.6667 80.6456 127.333 77.6506 189 105.905C250.667 134.16 312.333 137.155 374 114.89" stroke="url(#paint3_linear_366_416)" stroke-opacity="0.2" stroke-linecap="round"/>
<path opacity="0.85" d="M4 113.026C65.6667 80.0241 127.333 77.6507 189 105.905C250.667 134.16 312.333 136.533 374 113.026" stroke="url(#paint4_linear_366_416)" stroke-opacity="0.2" stroke-linecap="round"/>
<path opacity="0.81" d="M4 111.161C65.6667 79.4024 127.333 77.6506 189 105.905C250.667 134.16 312.333 135.912 374 111.161" stroke="url(#paint5_linear_366_416)" stroke-opacity="0.2" stroke-linecap="round"/>
<path opacity="0.77" d="M4 109.296C65.6667 78.7808 127.333 77.6506 189 105.905C250.667 134.16 312.333 135.29 374 109.296" stroke="url(#paint6_linear_366_416)" stroke-opacity="0.2" stroke-linecap="round"/>
<path opacity="0.73" d="M4 107.431C65.6667 78.1592 127.333 77.6506 189 105.905C250.667 134.16 312.333 134.669 374 107.431" stroke="url(#paint7_linear_366_416)" stroke-opacity="0.2" stroke-linecap="round"/>
<path opacity="0.7" d="M4 105.566C65.6667 77.5376 127.333 77.6506 189 105.905C250.667 134.16 312.333 134.047 374 105.566" stroke="url(#paint8_linear_366_416)" stroke-opacity="0.2" stroke-linecap="round"/>
<path opacity="0.66" d="M4 103.701C65.6667 76.9159 127.333 77.6506 189 105.905C250.667 134.16 312.333 133.425 374 103.701" stroke="url(#paint9_linear_366_416)" stroke-opacity="0.2" stroke-linecap="round"/>
<path opacity="0.62" d="M4 101.837C65.6667 76.2944 127.333 77.6507 189 105.905C250.667 134.16 312.333 132.804 374 101.837" stroke="url(#paint10_linear_366_416)" stroke-opacity="0.2" stroke-linecap="round"/>
<path opacity="0.58" d="M4 99.9718C65.6667 75.6728 127.333 77.6506 189 105.905C250.667 134.16 312.333 132.182 374 99.9718" stroke="url(#paint11_linear_366_416)" stroke-opacity="0.2" stroke-linecap="round"/>
<path opacity="0.54" d="M4 98.107C65.6667 75.0511 127.333 77.6506 189 105.905C250.667 134.16 312.333 131.56 374 98.107" stroke="url(#paint12_linear_366_416)" stroke-opacity="0.2" stroke-linecap="round"/>
<path opacity="0.51" d="M4 96.2422C65.6667 74.4296 127.333 77.6506 189 105.905C250.667 134.16 312.333 130.939 374 96.2422" stroke="url(#paint13_linear_366_416)" stroke-opacity="0.2" stroke-linecap="round"/>
<path opacity="0.47" d="M4 94.3774C65.6667 73.808 127.333 77.6506 189 105.905C250.667 134.16 312.333 130.317 374 94.3774" stroke="url(#paint14_linear_366_416)" stroke-opacity="0.2" stroke-linecap="round"/>
<path opacity="0.43" d="M4 92.5125C65.6667 73.1863 127.333 77.6506 189 105.905C250.667 134.16 312.333 129.696 374 92.5125" stroke="url(#paint15_linear_366_416)" stroke-opacity="0.2" stroke-linecap="round"/>
<path opacity="0.39" d="M4 90.6478C65.6667 72.5648 127.333 77.6506 189 105.905C250.667 134.16 312.333 129.074 374 90.6478" stroke="url(#paint16_linear_366_416)" stroke-opacity="0.2" stroke-linecap="round"/>
<path opacity="0.35" d="M4 88.7829C65.6667 71.9431 127.333 77.6506 189 105.905C250.667 134.16 312.333 128.452 374 88.7829" stroke="url(#paint17_linear_366_416)" stroke-opacity="0.2" stroke-linecap="round"/>
<path opacity="0.32" d="M4 86.9181C65.6667 71.3216 127.333 77.6506 189 105.905C250.667 134.16 312.333 127.831 374 86.9181" stroke="url(#paint18_linear_366_416)" stroke-opacity="0.2" stroke-linecap="round"/>
<path opacity="0.28" d="M4 85.0534C65.6667 70.7 127.333 77.6506 189 105.905C250.667 134.16 312.333 127.209 374 85.0534" stroke="url(#paint19_linear_366_416)" stroke-opacity="0.2" stroke-linecap="round"/>
<path opacity="0.24" d="M4 83.1885C65.6667 70.0783 127.333 77.6506 189 105.905C250.667 134.16 312.333 126.588 374 83.1885" stroke="url(#paint20_linear_366_416)" stroke-opacity="0.2" stroke-linecap="round"/>
<path opacity="0.2" d="M4 81.3238C65.6667 69.4568 127.333 77.6506 189 105.905C250.667 134.16 312.333 125.966 374 81.3238" stroke="url(#paint21_linear_366_416)" stroke-opacity="0.2" stroke-linecap="round"/>
<path opacity="0.16" d="M4 79.4589C65.6667 68.8351 127.333 77.6506 189 105.905C250.667 134.16 312.333 125.344 374 79.4589" stroke="url(#paint22_linear_366_416)" stroke-opacity="0.2" stroke-linecap="round"/>
<path opacity="0.13" d="M4 77.5941C65.6667 68.2135 127.333 77.6506 189 105.905C250.667 134.16 312.333 124.723 374 77.5941" stroke="url(#paint23_linear_366_416)" stroke-opacity="0.2" stroke-linecap="round"/>
<path opacity="0.09" d="M4 75.7293C65.6667 67.592 127.333 77.6506 189 105.905C250.667 134.16 312.333 124.101 374 75.7293" stroke="url(#paint24_linear_366_416)" stroke-opacity="0.2" stroke-linecap="round"/>
</g>
<defs>
<filter id="filter0_d_366_416" x="0" y="0" width="379" height="148" filterUnits="userSpaceOnUse" color-interpolation-filters="sRGB">
<feFlood flood-opacity="0" result="BackgroundImageFix"/>
<feColorMatrix in="SourceAlpha" type="matrix" values="0 0 0 0 0 0 0 0 0 0 0 0 0 0 0 0 0 0 127 0" result="hardAlpha"/>
<feOffset dy="4"/>
<feGaussianBlur stdDeviation="2"/>
<feComposite in2="hardAlpha" operator="out"/>
<feColorMatrix type="matrix" values="0 0 0 0 0.561615 0 0 0 0 0.214818 0 0 0 0 0.506127 0 0 0 1 0"/>
<feBlend mode="normal" in2="BackgroundImageFix" result="effect1_dropShadow_366_416"/>
<feBlend mode="normal" in="SourceGraphic" in2="effect1_dropShadow_366_416" result="shape"/>
</filter>
<linearGradient id="paint0_linear_366_416" x1="18504" y1="87.8242" x2="18504" y2="4455.23" gradientUnits="userSpaceOnUse">
<stop stop-color="#B13FCE"/>
<stop offset="1" stop-color="#F42A8B"/>
</linearGradient>
<linearGradient id="paint1_linear_366_416" x1="18504" y1="87.4783" x2="18504" y2="4423.23" gradientUnits="userSpaceOnUse">
<stop stop-color="#B13FCE"/>
<stop offset="1" stop-color="#F42A8B"/>
</linearGradient>
<linearGradient id="paint2_linear_366_416" x1="18504" y1="87.1189" x2="18504" y2="4395.91" gradientUnits="userSpaceOnUse">
<stop stop-color="#B13FCE"/>
<stop offset="1" stop-color="#F42A8B"/>
</linearGradient>
<linearGradient id="paint3_linear_366_416" x1="18504" y1="86.7452" x2="18504" y2="4373.11" gradientUnits="userSpaceOnUse">
<stop stop-color="#B13FCE"/>
<stop offset="1" stop-color="#F42A8B"/>
</linearGradient>
<linearGradient id="paint4_linear_366_416" x1="18504" y1="86.3564" x2="18504" y2="4354.67" gradientUnits="userSpaceOnUse">
<stop stop-color="#B13FCE"/>
<stop offset="1" stop-color="#F42A8B"/>
</linearGradient>
<linearGradient id="paint5_linear_366_416" x1="18504" y1="85.9514" x2="18504" y2="4340.51" gradientUnits="userSpaceOnUse">
<stop stop-color="#B13FCE"/>
<stop offset="1" stop-color="#F42A8B"/>
</linearGradient>
<linearGradient id="paint6_linear_366_416" x1="18504" y1="85.5293" x2="18504" y2="4330.52" gradientUnits="userSpaceOnUse">
<stop stop-color="#B13FCE"/>
<stop offset="1" stop-color="#F42A8B"/>
</linearGradient>
<linearGradient id="paint7_linear_366_416" x1="18504" y1="85.089" x2="18504" y2="4324.66" gradientUnits="userSpaceOnUse">
<stop stop-color="#B13FCE"/>
<stop offset="1" stop-color="#F42A8B"/>
</linearGradient>
<linearGradient id="paint8_linear_366_416" x1="18504" y1="84.6292" x2="18504" y2="4322.9" gradientUnits="userSpaceOnUse">
<stop stop-color="#B13FCE"/>
<stop offset="1" stop-color="#F42A8B"/>
</linearGradient>
<linearGradient id="paint9_linear_366_416" x1="18504" y1="84.1486" x2="18504" y2="4325.22" gradientUnits="userSpaceOnUse">
<stop stop-color="#B13FCE"/>
<stop offset="1" stop-color="#F42A8B"/>
</linearGradient>
<linearGradient id="paint10_linear_366_416" x1="18504" y1="83.6459" x2="18504" y2="4331.63" gradientUnits="userSpaceOnUse">
<stop stop-color="#B13FCE"/>
<stop offset="1" stop-color="#F42A8B"/>
</linearGradient>
<linearGradient id="paint11_linear_366_416" x1="18504" y1="83.1193" x2="18504" y2="4342.19" gradientUnits="userSpaceOnUse">
<stop stop-color="#B13FCE"/>
<stop offset="1" stop-color="#F42A8B"/>
</linearGradient>
<linearGradient id="paint12_linear_366_416" x1="18504" y1="82.5671" x2="18504" y2="4356.95" gradientUnits="userSpaceOnUse">
<stop stop-color="#B13FCE"/>
<stop offset="1" stop-color="#F42A8B"/>
</linearGradient>
<linearGradient id="paint13_linear_366_416" x1="18504" y1="81.9877" x2="18504" y2="4375.99" gradientUnits="userSpaceOnUse">
<stop stop-color="#B13FCE"/>
<stop offset="1" stop-color="#F42A8B"/>
</linearGradient>
<linearGradient id="paint14_linear_366_416" x1="18504" y1="81.3787" x2="18504" y2="4399.45" gradientUnits="userSpaceOnUse">
<stop stop-color="#B13FCE"/>
<stop offset="1" stop-color="#F42A8B"/>
</linearGradient>
<linearGradient id="paint15_linear_366_416" x1="18504" y1="80.7378" x2="18504" y2="4427.45" gradientUnits="userSpaceOnUse">
<stop stop-color="#B13FCE"/>
<stop offset="1" stop-color="#F42A8B"/>
</linearGradient>
<linearGradient id="paint16_linear_366_416" x1="18504" y1="80.0626" x2="18504" y2="4460.18" gradientUnits="userSpaceOnUse">
<stop stop-color="#B13FCE"/>
<stop offset="1" stop-color="#F42A8B"/>
</linearGradient>
<linearGradient id="paint17_linear_366_416" x1="18504" y1="79.3501" x2="18504" y2="4497.84" gradientUnits="userSpaceOnUse">
<stop stop-color="#B13FCE"/>
<stop offset="1" stop-color="#F42A8B"/>
</linearGradient>
<linearGradient id="paint18_linear_366_416" x1="18504" y1="78.5973" x2="18504" y2="4540.69" gradientUnits="userSpaceOnUse">
<stop stop-color="#B13FCE"/>
<stop offset="1" stop-color="#F42A8B"/>
</linearGradient>
<linearGradient id="paint19_linear_366_416" x1="18504" y1="77.8005" x2="18504" y2="4589" gradientUnits="userSpaceOnUse">
<stop stop-color="#B13FCE"/>
<stop offset="1" stop-color="#F42A8B"/>
</linearGradient>
<linearGradient id="paint20_linear_366_416" x1="18504" y1="76.9558" x2="18504" y2="4643.12" gradientUnits="userSpaceOnUse">
<stop stop-color="#B13FCE"/>
<stop offset="1" stop-color="#F42A8B"/>
</linearGradient>
<linearGradient id="paint21_linear_366_416" x1="18504" y1="76.0588" x2="18504" y2="4703.42" gradientUnits="userSpaceOnUse">
<stop stop-color="#B13FCE"/>
<stop offset="1" stop-color="#F42A8B"/>
</linearGradient>
<linearGradient id="paint22_linear_366_416" x1="18504" y1="75.1044" x2="18504" y2="4770.36" gradientUnits="userSpaceOnUse">
<stop stop-color="#B13FCE"/>
<stop offset="1" stop-color="#F42A8B"/>
</linearGradient>
<linearGradient id="paint23_linear_366_416" x1="18504" y1="74.0869" x2="18504" y2="4844.45" gradientUnits="userSpaceOnUse">
<stop stop-color="#B13FCE"/>
<stop offset="1" stop-color="#F42A8B"/>
</linearGradient>
<linearGradient id="paint24_linear_366_416" x1="18504" y1="73" x2="18504" y2="4926.29" gradientUnits="userSpaceOnUse">
<stop stop-color="#B13FCE"/>
<stop offset="1" stop-color="#F42A8B"/>
</linearGradient>
</defs>
</svg>
