<svg width="381" height="147" viewBox="0 0 381 147" fill="none" xmlns="http://www.w3.org/2000/svg">
<g filter="url(#filter0_d_366_528)">
<g filter="url(#filter1_d_366_528)">
<rect x="4" width="371" height="139" rx="10" fill="white"/>
</g>
<g opacity="0.6">
<path d="M6 118.485C67.6667 80.5104 129.333 75.6506 191 103.905C252.667 132.16 314.333 137.02 376 118.485" stroke="url(#paint0_linear_366_528)" stroke-opacity="0.2" stroke-linecap="round"/>
<path opacity="0.96" d="M6 116.62C67.6667 79.8888 129.333 75.6506 191 103.905C252.667 132.16 314.333 136.398 376 116.62" stroke="url(#paint1_linear_366_528)" stroke-opacity="0.2" stroke-linecap="round"/>
<path opacity="0.92" d="M6 114.755C67.6667 79.2672 129.333 75.6506 191 103.905C252.667 132.16 314.333 135.777 376 114.755" stroke="url(#paint2_linear_366_528)" stroke-opacity="0.2" stroke-linecap="round"/>
<path opacity="0.89" d="M6 112.89C67.6667 78.6456 129.333 75.6506 191 103.905C252.667 132.16 314.333 135.155 376 112.89" stroke="url(#paint3_linear_366_528)" stroke-opacity="0.2" stroke-linecap="round"/>
<path opacity="0.85" d="M6 111.025C67.6667 78.024 129.333 75.6506 191 103.905C252.667 132.16 314.333 134.533 376 111.025" stroke="url(#paint4_linear_366_528)" stroke-opacity="0.2" stroke-linecap="round"/>
<path opacity="0.81" d="M6 109.161C67.6667 77.4024 129.333 75.6506 191 103.905C252.667 132.16 314.333 133.912 376 109.161" stroke="url(#paint5_linear_366_528)" stroke-opacity="0.2" stroke-linecap="round"/>
<path opacity="0.77" d="M6 107.296C67.6667 76.7808 129.333 75.6506 191 103.905C252.667 132.16 314.333 133.29 376 107.296" stroke="url(#paint6_linear_366_528)" stroke-opacity="0.2" stroke-linecap="round"/>
<path opacity="0.73" d="M6 105.431C67.6667 76.1592 129.333 75.6506 191 103.905C252.667 132.16 314.333 132.669 376 105.431" stroke="url(#paint7_linear_366_528)" stroke-opacity="0.2" stroke-linecap="round"/>
<path opacity="0.7" d="M6 103.566C67.6667 75.5376 129.333 75.6506 191 103.905C252.667 132.16 314.333 132.047 376 103.566" stroke="url(#paint8_linear_366_528)" stroke-opacity="0.2" stroke-linecap="round"/>
<path opacity="0.66" d="M6 101.701C67.6667 74.916 129.333 75.6506 191 103.905C252.667 132.16 314.333 131.425 376 101.701" stroke="url(#paint9_linear_366_528)" stroke-opacity="0.2" stroke-linecap="round"/>
<path opacity="0.62" d="M6 99.8366C67.6667 74.2944 129.333 75.6506 191 103.905C252.667 132.16 314.333 130.804 376 99.8366" stroke="url(#paint10_linear_366_528)" stroke-opacity="0.2" stroke-linecap="round"/>
<path opacity="0.58" d="M6 97.9718C67.6667 73.6728 129.333 75.6506 191 103.905C252.667 132.16 314.333 130.182 376 97.9718" stroke="url(#paint11_linear_366_528)" stroke-opacity="0.2" stroke-linecap="round"/>
<path opacity="0.54" d="M6 96.107C67.6667 73.0511 129.333 75.6506 191 103.905C252.667 132.16 314.333 129.56 376 96.107" stroke="url(#paint12_linear_366_528)" stroke-opacity="0.2" stroke-linecap="round"/>
<path opacity="0.51" d="M6 94.2422C67.6667 72.4296 129.333 75.6506 191 103.905C252.667 132.16 314.333 128.939 376 94.2422" stroke="url(#paint13_linear_366_528)" stroke-opacity="0.2" stroke-linecap="round"/>
<path opacity="0.47" d="M6 92.3774C67.6667 71.808 129.333 75.6506 191 103.905C252.667 132.16 314.333 128.317 376 92.3774" stroke="url(#paint14_linear_366_528)" stroke-opacity="0.2" stroke-linecap="round"/>
<path opacity="0.43" d="M6 90.5125C67.6667 71.1863 129.333 75.6506 191 103.905C252.667 132.16 314.333 127.696 376 90.5125" stroke="url(#paint15_linear_366_528)" stroke-opacity="0.2" stroke-linecap="round"/>
<path opacity="0.39" d="M6 88.6478C67.6667 70.5648 129.333 75.6506 191 103.905C252.667 132.16 314.333 127.074 376 88.6478" stroke="url(#paint16_linear_366_528)" stroke-opacity="0.2" stroke-linecap="round"/>
<path opacity="0.35" d="M6 86.783C67.6667 69.9432 129.333 75.6506 191 103.905C252.667 132.16 314.333 126.453 376 86.783" stroke="url(#paint17_linear_366_528)" stroke-opacity="0.2" stroke-linecap="round"/>
<path opacity="0.32" d="M6 84.9181C67.6667 69.3216 129.333 75.6506 191 103.905C252.667 132.16 314.333 125.831 376 84.9181" stroke="url(#paint18_linear_366_528)" stroke-opacity="0.2" stroke-linecap="round"/>
<path opacity="0.28" d="M6 83.0533C67.6667 68.6999 129.333 75.6506 191 103.905C252.667 132.16 314.333 125.209 376 83.0533" stroke="url(#paint19_linear_366_528)" stroke-opacity="0.2" stroke-linecap="round"/>
<path opacity="0.24" d="M6 81.1885C67.6667 68.0783 129.333 75.6506 191 103.905C252.667 132.16 314.333 124.588 376 81.1885" stroke="url(#paint20_linear_366_528)" stroke-opacity="0.2" stroke-linecap="round"/>
<path opacity="0.2" d="M6 79.3237C67.6667 67.4567 129.333 75.6506 191 103.905C252.667 132.16 314.333 123.966 376 79.3237" stroke="url(#paint21_linear_366_528)" stroke-opacity="0.2" stroke-linecap="round"/>
<path opacity="0.16" d="M6 77.4589C67.6667 66.8352 129.333 75.6506 191 103.905C252.667 132.16 314.333 123.345 376 77.4589" stroke="url(#paint22_linear_366_528)" stroke-opacity="0.2" stroke-linecap="round"/>
<path opacity="0.13" d="M6 75.5941C67.6667 66.2136 129.333 75.6506 191 103.905C252.667 132.16 314.333 122.723 376 75.5941" stroke="url(#paint23_linear_366_528)" stroke-opacity="0.2" stroke-linecap="round"/>
<path opacity="0.09" d="M6 73.7293C67.6667 65.592 129.333 75.6506 191 103.905C252.667 132.16 314.333 122.101 376 73.7293" stroke="url(#paint24_linear_366_528)" stroke-opacity="0.2" stroke-linecap="round"/>
</g>
</g>
<defs>
<filter id="filter0_d_366_528" x="0" y="0" width="380.5" height="147" filterUnits="userSpaceOnUse" color-interpolation-filters="sRGB">
<feFlood flood-opacity="0" result="BackgroundImageFix"/>
<feColorMatrix in="SourceAlpha" type="matrix" values="0 0 0 0 0 0 0 0 0 0 0 0 0 0 0 0 0 0 127 0" result="hardAlpha"/>
<feOffset dy="4"/>
<feGaussianBlur stdDeviation="2"/>
<feComposite in2="hardAlpha" operator="out"/>
<feColorMatrix type="matrix" values="0 0 0 0 0 0 0 0 0 0 0 0 0 0 0 0 0 0 0.25 0"/>
<feBlend mode="normal" in2="BackgroundImageFix" result="effect1_dropShadow_366_528"/>
<feBlend mode="normal" in="SourceGraphic" in2="effect1_dropShadow_366_528" result="shape"/>
</filter>
<filter id="filter1_d_366_528" x="0" y="0" width="379" height="147" filterUnits="userSpaceOnUse" color-interpolation-filters="sRGB">
<feFlood flood-opacity="0" result="BackgroundImageFix"/>
<feColorMatrix in="SourceAlpha" type="matrix" values="0 0 0 0 0 0 0 0 0 0 0 0 0 0 0 0 0 0 127 0" result="hardAlpha"/>
<feOffset dy="4"/>
<feGaussianBlur stdDeviation="2"/>
<feComposite in2="hardAlpha" operator="out"/>
<feColorMatrix type="matrix" values="0 0 0 0 0.203922 0 0 0 0 0.313726 0 0 0 0 0.509804 0 0 0 1 0"/>
<feBlend mode="normal" in2="BackgroundImageFix" result="effect1_dropShadow_366_528"/>
<feBlend mode="normal" in="SourceGraphic" in2="effect1_dropShadow_366_528" result="shape"/>
</filter>
<linearGradient id="paint0_linear_366_528" x1="18506" y1="85.8242" x2="18506" y2="4453.23" gradientUnits="userSpaceOnUse">
<stop stop-color="#345082"/>
<stop offset="1" stop-color="#F42A8B"/>
</linearGradient>
<linearGradient id="paint1_linear_366_528" x1="18506" y1="85.4783" x2="18506" y2="4421.23" gradientUnits="userSpaceOnUse">
<stop stop-color="#345082"/>
<stop offset="1" stop-color="#F42A8B"/>
</linearGradient>
<linearGradient id="paint2_linear_366_528" x1="18506" y1="85.119" x2="18506" y2="4393.91" gradientUnits="userSpaceOnUse">
<stop stop-color="#345082"/>
<stop offset="1" stop-color="#F42A8B"/>
</linearGradient>
<linearGradient id="paint3_linear_366_528" x1="18506" y1="84.7452" x2="18506" y2="4371.11" gradientUnits="userSpaceOnUse">
<stop stop-color="#345082"/>
<stop offset="1" stop-color="#F42A8B"/>
</linearGradient>
<linearGradient id="paint4_linear_366_528" x1="18506" y1="84.3564" x2="18506" y2="4352.67" gradientUnits="userSpaceOnUse">
<stop stop-color="#345082"/>
<stop offset="1" stop-color="#F42A8B"/>
</linearGradient>
<linearGradient id="paint5_linear_366_528" x1="18506" y1="83.9514" x2="18506" y2="4338.51" gradientUnits="userSpaceOnUse">
<stop stop-color="#345082"/>
<stop offset="1" stop-color="#F42A8B"/>
</linearGradient>
<linearGradient id="paint6_linear_366_528" x1="18506" y1="83.5293" x2="18506" y2="4328.52" gradientUnits="userSpaceOnUse">
<stop stop-color="#345082"/>
<stop offset="1" stop-color="#F42A8B"/>
</linearGradient>
<linearGradient id="paint7_linear_366_528" x1="18506" y1="83.089" x2="18506" y2="4322.66" gradientUnits="userSpaceOnUse">
<stop stop-color="#345082"/>
<stop offset="1" stop-color="#F42A8B"/>
</linearGradient>
<linearGradient id="paint8_linear_366_528" x1="18506" y1="82.6292" x2="18506" y2="4320.9" gradientUnits="userSpaceOnUse">
<stop stop-color="#345082"/>
<stop offset="1" stop-color="#F42A8B"/>
</linearGradient>
<linearGradient id="paint9_linear_366_528" x1="18506" y1="82.1486" x2="18506" y2="4323.22" gradientUnits="userSpaceOnUse">
<stop stop-color="#345082"/>
<stop offset="1" stop-color="#F42A8B"/>
</linearGradient>
<linearGradient id="paint10_linear_366_528" x1="18506" y1="81.6458" x2="18506" y2="4329.63" gradientUnits="userSpaceOnUse">
<stop stop-color="#345082"/>
<stop offset="1" stop-color="#F42A8B"/>
</linearGradient>
<linearGradient id="paint11_linear_366_528" x1="18506" y1="81.1193" x2="18506" y2="4340.19" gradientUnits="userSpaceOnUse">
<stop stop-color="#345082"/>
<stop offset="1" stop-color="#F42A8B"/>
</linearGradient>
<linearGradient id="paint12_linear_366_528" x1="18506" y1="80.5671" x2="18506" y2="4354.95" gradientUnits="userSpaceOnUse">
<stop stop-color="#345082"/>
<stop offset="1" stop-color="#F42A8B"/>
</linearGradient>
<linearGradient id="paint13_linear_366_528" x1="18506" y1="79.9877" x2="18506" y2="4373.99" gradientUnits="userSpaceOnUse">
<stop stop-color="#345082"/>
<stop offset="1" stop-color="#F42A8B"/>
</linearGradient>
<linearGradient id="paint14_linear_366_528" x1="18506" y1="79.3787" x2="18506" y2="4397.45" gradientUnits="userSpaceOnUse">
<stop stop-color="#345082"/>
<stop offset="1" stop-color="#F42A8B"/>
</linearGradient>
<linearGradient id="paint15_linear_366_528" x1="18506" y1="78.7378" x2="18506" y2="4425.45" gradientUnits="userSpaceOnUse">
<stop stop-color="#345082"/>
<stop offset="1" stop-color="#F42A8B"/>
</linearGradient>
<linearGradient id="paint16_linear_366_528" x1="18506" y1="78.0626" x2="18506" y2="4458.18" gradientUnits="userSpaceOnUse">
<stop stop-color="#345082"/>
<stop offset="1" stop-color="#F42A8B"/>
</linearGradient>
<linearGradient id="paint17_linear_366_528" x1="18506" y1="77.3502" x2="18506" y2="4495.84" gradientUnits="userSpaceOnUse">
<stop stop-color="#345082"/>
<stop offset="1" stop-color="#F42A8B"/>
</linearGradient>
<linearGradient id="paint18_linear_366_528" x1="18506" y1="76.5973" x2="18506" y2="4538.69" gradientUnits="userSpaceOnUse">
<stop stop-color="#345082"/>
<stop offset="1" stop-color="#F42A8B"/>
</linearGradient>
<linearGradient id="paint19_linear_366_528" x1="18506" y1="75.8005" x2="18506" y2="4587" gradientUnits="userSpaceOnUse">
<stop stop-color="#345082"/>
<stop offset="1" stop-color="#F42A8B"/>
</linearGradient>
<linearGradient id="paint20_linear_366_528" x1="18506" y1="74.9558" x2="18506" y2="4641.12" gradientUnits="userSpaceOnUse">
<stop stop-color="#345082"/>
<stop offset="1" stop-color="#F42A8B"/>
</linearGradient>
<linearGradient id="paint21_linear_366_528" x1="18506" y1="74.0588" x2="18506" y2="4701.42" gradientUnits="userSpaceOnUse">
<stop stop-color="#345082"/>
<stop offset="1" stop-color="#F42A8B"/>
</linearGradient>
<linearGradient id="paint22_linear_366_528" x1="18506" y1="73.1044" x2="18506" y2="4768.36" gradientUnits="userSpaceOnUse">
<stop stop-color="#345082"/>
<stop offset="1" stop-color="#F42A8B"/>
</linearGradient>
<linearGradient id="paint23_linear_366_528" x1="18506" y1="72.087" x2="18506" y2="4842.45" gradientUnits="userSpaceOnUse">
<stop stop-color="#345082"/>
<stop offset="1" stop-color="#F42A8B"/>
</linearGradient>
<linearGradient id="paint24_linear_366_528" x1="18506" y1="71" x2="18506" y2="4924.29" gradientUnits="userSpaceOnUse">
<stop stop-color="#345082"/>
<stop offset="1" stop-color="#F42A8B"/>
</linearGradient>
</defs>
</svg>
